<svg id="Ebene_1" data-name="Ebene 1" xmlns="http://www.w3.org/2000/svg" width="60" height="60" viewBox="0 0 60 60">
  <title>footer_social</title>
  <path d="M42.455,16H17.545A1.545,1.545,0,0,0,16,17.545V42.455A1.545,1.545,0,0,0,17.545,44h13.41V33.157H27.307V28.931h3.649V25.815c0-3.617,2.209-5.586,5.435-5.586a29.943,29.943,0,0,1,3.261.166v3.78H37.414c-1.755,0-2.094.834-2.094,2.057v2.7H39.5l-.545,4.226h-3.64V44h7.135A1.545,1.545,0,0,0,44,42.455V17.545A1.545,1.545,0,0,0,42.455,16Z" style="fill: #fff"/>
</svg>
