<svg id="Ebene_1" data-name="Ebene 1" xmlns="http://www.w3.org/2000/svg" width="60" height="60" viewBox="0 0 60 60">
  <title>footer_social</title>
  <path d="M44,30q0,4.175-.091,5.779a8.551,8.551,0,0,1-2.26,5.87,8.553,8.553,0,0,1-5.87,2.26Q34.174,44,30,44t-5.779-.091a8.551,8.551,0,0,1-5.87-2.26,8.55,8.55,0,0,1-2.26-5.87Q16,34.175,16,30t.091-5.779a8.55,8.55,0,0,1,2.26-5.87,8.552,8.552,0,0,1,5.87-2.261Q25.825,16,30,16t5.779.091a8.553,8.553,0,0,1,5.87,2.261,8.551,8.551,0,0,1,2.26,5.87Q44,25.826,44,30ZM31.394,18.507,30,18.516l-1.394-.009q-1.267-.009-1.923,0t-1.759.055a14.479,14.479,0,0,0-1.878.182,7.318,7.318,0,0,0-1.3.337,4.774,4.774,0,0,0-2.661,2.662,7.289,7.289,0,0,0-.337,1.3,14.424,14.424,0,0,0-.182,1.878q-.045,1.1-.055,1.759t0,1.923q.009,1.267.009,1.395t-.009,1.394q-.009,1.267,0,1.923t.055,1.759a14.413,14.413,0,0,0,.182,1.878,7.275,7.275,0,0,0,.337,1.3,4.773,4.773,0,0,0,2.661,2.662,7.286,7.286,0,0,0,1.3.337,14.413,14.413,0,0,0,1.878.182q1.1.046,1.759.055t1.923,0L30,41.484l1.394.009q1.267.009,1.923,0t1.759-.055a14.431,14.431,0,0,0,1.878-.182,7.3,7.3,0,0,0,1.3-.337,4.771,4.771,0,0,0,2.661-2.662,7.316,7.316,0,0,0,.337-1.3,14.417,14.417,0,0,0,.182-1.878q.045-1.1.055-1.759t0-1.923q-.009-1.267-.009-1.394t.009-1.395q.009-1.267,0-1.923t-.055-1.759a14.429,14.429,0,0,0-.182-1.878,7.33,7.33,0,0,0-.337-1.3,4.772,4.772,0,0,0-2.661-2.662,7.332,7.332,0,0,0-1.3-.337,14.5,14.5,0,0,0-1.878-.182q-1.1-.045-1.759-.055T31.394,18.507Zm3.691,6.408a7.217,7.217,0,0,1,0,10.172,7.218,7.218,0,0,1-10.172,0,7.218,7.218,0,0,1,0-10.172,7.218,7.218,0,0,1,10.172,0ZM33.3,33.3a4.666,4.666,0,1,0-6.6-6.6,4.666,4.666,0,1,0,6.6,6.6Zm5.359-11.958a1.672,1.672,0,1,1-1.185-.492A1.615,1.615,0,0,1,38.659,21.341Z" style="fill: #fff"/>
</svg>
