<svg id="Ebene_1" data-name="Ebene 1" xmlns="http://www.w3.org/2000/svg" width="60" height="60" viewBox="0 0 60 60">
  <title>footer_social</title>
  <path d="M41.927,16H18.067A2.044,2.044,0,0,0,16,18.018V41.979A2.045,2.045,0,0,0,18.067,44H41.927A2.049,2.049,0,0,0,44,41.979V18.018A2.048,2.048,0,0,0,41.927,16ZM24.3,39.859H20.151V26.5H24.3ZM22.229,24.671a2.408,2.408,0,1,1,2.407-2.408A2.408,2.408,0,0,1,22.229,24.671Zm17.63,15.189h-4.15v-6.5c0-1.549-.028-3.543-2.158-3.543-2.161,0-2.493,1.688-2.493,3.431v6.61H26.909V26.5h3.983v1.826h.056a4.364,4.364,0,0,1,3.929-2.158c4.205,0,4.982,2.768,4.982,6.365Z" style="fill: #fff"/>
</svg>
