<svg id="Ebene_1" data-name="Ebene 1" xmlns="http://www.w3.org/2000/svg" width="60" height="60" viewBox="0 0 60 60">
  <title>footer_social</title>
  <g>
    <path d="M20.343,21.606a.614.614,0,0,0-.546.25.62.62,0,0,0,.023.614l2.706,4.684a.021.021,0,0,1,0,.023l-4.252,7.5a.62.62,0,0,0,0,.614.59.59,0,0,0,.523.273h4a1.223,1.223,0,0,0,1.091-.773l4.32-7.64c-.016-.026-2.751-4.8-2.751-4.8a1.237,1.237,0,0,0-1.114-.751h-4Z" style="fill: #fff"/>
    <path d="M37.156,16.126a1.173,1.173,0,0,0-1.072.762S27.463,32.178,27.179,32.68l5.686,10.432a1.252,1.252,0,0,0,1.118.762h4a.591.591,0,0,0,.531-.256A.623.623,0,0,0,38.5,43L32.861,32.692a.023.023,0,0,1,0-.026L41.722,17a.627.627,0,0,0,.008-.618.594.594,0,0,0-.532-.256H37.156Z" style="fill: #fff"/>
  </g>
</svg>
