<svg id="Ebene_1" data-name="Ebene 1" xmlns="http://www.w3.org/2000/svg" width="60" height="60" viewBox="0 0 60 60">
  <title>footer_social</title>
  <g id="Lozenge">
    <path d="M45.68,23.6a6.924,6.924,0,0,0-1.272-3.176A4.577,4.577,0,0,0,41.2,19.07c-4.478-.324-11.2-.324-11.2-.324h-.014s-6.717,0-11.2.324a4.577,4.577,0,0,0-3.206,1.355A6.921,6.921,0,0,0,14.32,23.6,48.387,48.387,0,0,0,14,28.781v2.428a48.387,48.387,0,0,0,.32,5.179,6.92,6.92,0,0,0,1.272,3.176,5.426,5.426,0,0,0,3.528,1.368c2.56.245,10.88.321,10.88.321s6.724-.01,11.2-.334a4.577,4.577,0,0,0,3.206-1.355,6.923,6.923,0,0,0,1.272-3.176A48.46,48.46,0,0,0,46,31.209V28.781A48.46,48.46,0,0,0,45.68,23.6ZM26.7,34.151V25.16l8.647,4.511Z" style="fill: #fff"/>
  </g>
</svg>
